<?xml version="1.0" encoding="UTF-8"?>
<svg xmlns="http://www.w3.org/2000/svg" xmlns:xlink="http://www.w3.org/1999/xlink" version="1.1" viewBox="0 0 384 334">
  <defs>
    <style>
      .cls-1 {
        fill: url(#linear-gradient-5);
      }

      .cls-1, .cls-2, .cls-3, .cls-4, .cls-5, .cls-6, .cls-7 {
        fill-rule: evenodd;
      }

      .cls-2 {
        fill: url(#linear-gradient-2);
      }

      .cls-3 {
        fill: url(#linear-gradient-3);
      }

      .cls-4 {
        fill: url(#linear-gradient-4);
      }

      .cls-5 {
        fill: url(#linear-gradient-6);
      }

      .cls-8 {
        opacity: .4;
      }

      .cls-6 {
        fill: #ffd000;
      }

      .cls-7 {
        fill: url(#linear-gradient);
      }
    </style>
    <linearGradient id="linear-gradient" x1="219.6" y1="233.7" x2="315.3" y2="233.7" gradientUnits="userSpaceOnUse">
      <stop offset="0" stop-color="#ffd000"/>
      <stop offset="0" stop-color="#fed211"/>
      <stop offset=".3" stop-color="#fbdb56"/>
      <stop offset=".4" stop-color="#f9e081"/>
      <stop offset=".5" stop-color="#f9e392"/>
      <stop offset=".5" stop-color="#f9e290"/>
      <stop offset=".6" stop-color="#fadd6a"/>
      <stop offset=".6" stop-color="#fbd949"/>
      <stop offset=".7" stop-color="#fdd62e"/>
      <stop offset=".7" stop-color="#fdd319"/>
      <stop offset=".8" stop-color="#fed10b"/>
      <stop offset=".9" stop-color="#fed002"/>
      <stop offset="1" stop-color="#ffd000"/>
    </linearGradient>
    <linearGradient id="linear-gradient-2" x1="219.6" y1="186.9" x2="315.3" y2="186.9" xlink:href="#linear-gradient"/>
    <linearGradient id="linear-gradient-3" x1="219.6" y1="143" x2="315.3" y2="143" xlink:href="#linear-gradient"/>
    <linearGradient id="linear-gradient-4" x1="68.7" y1="234.2" x2="164.4" y2="234.2" xlink:href="#linear-gradient"/>
    <linearGradient id="linear-gradient-5" x1="68.7" y1="187.5" x2="164.4" y2="187.5" xlink:href="#linear-gradient"/>
    <linearGradient id="linear-gradient-6" x1="68.8" y1="143.6" x2="164.4" y2="143.6" xlink:href="#linear-gradient"/>
  </defs>
  <!-- Generator: Adobe Illustrator 28.6.0, SVG Export Plug-In . SVG Version: 1.2.0 Build 709)  -->
  <g>
    <g id="Layer_1">
      <g>
        <g>
          <path class="cls-7" d="M315.3,209.9c-.4.3-.6.5-.8.6-2.2,1.4-4.4,3.1-6.8,4.3-8.2,4.3-16.9,6.3-25.7,7.5-5.3.7-10.7.9-16,.9-5.2,0-10.5-.4-15.7-1.3-4.4-.8-8.8-1.8-13.2-3-5.1-1.4-10-3.5-14.6-6.8-.9-.6-1.8-1.3-2.9-2.1,0,.6,0,17.3,0,25.3,0,3.7,1.1,6.5,3.2,8.8,2.4,2.7,5.2,4.4,8.2,5.9,5.2,2.6,10.7,4.2,16.2,5.3,5.3,1.1,10.5,1.7,15.8,1.9,9.1.3,18.2-.3,27.3-2.4,5.2-1.2,10.3-2.9,15.1-5.6,2.8-1.6,5.4-3.4,7.5-6.2,1.6-2.1,2.4-4.4,2.4-7.4,0-8.2,0-25.2,0-25.8Z"/>
          <path class="cls-2" d="M222.1,196.4c2.5,3.1,5.6,5.1,8.8,6.8,4.7,2.4,9.6,3.9,14.6,5.1,4.9,1.1,9.7,1.8,14.7,2.1,9.5.6,19,.1,28.4-1.9,5.7-1.2,11.3-2.9,16.7-5.9,2.9-1.6,5.6-3.5,7.8-6.4,1.5-2,2.4-4.4,2.3-7.3,0-8.2,0-25.3,0-25.7-1.1.8-2,1.5-3,2.2-7.7,5.2-16.1,7.6-24.7,9.1-4,.7-8,1.1-12,1.5-7.8.7-15.6.4-23.3-.7-5.6-.8-11.2-2-16.6-3.8-4.3-1.4-8.6-3.3-12.5-5.9-1.1-.7-2.1-1.5-3.3-2.4,0,.5,0,17.5,0,25.6,0,3.1.8,5.6,2.5,7.7Z"/>
          <path class="cls-3" d="M229.5,130.4c-2.8,1.6-5.4,3.4-7.6,6.3-1.8,2.4-2.8,5.1-2.1,8.5.5,2.1,1.6,3.8,2.8,5.2,2.8,3.1,6,5,9.4,6.6,6.1,2.9,12.5,4.5,18.9,5.5,5.4.9,10.9,1.3,15.3,1.2,10.3,0,19.4-1,28.4-3.7,4.5-1.3,8.9-3.1,12.9-5.8,2.2-1.5,4.4-3.3,6-5.8,2.1-3.4,2.2-7.4,0-10.7-.8-1.2-1.6-2.2-2.6-3.1-3.5-3.4-7.5-5.3-11.6-7-7.3-2.9-14.9-4.3-22.5-4.9-10.4-.9-20.8-.4-31.1,1.8-5.6,1.2-11.1,3-16.3,5.9Z"/>
        </g>
        <g>
          <path class="cls-4" d="M164.4,210.5c-.4.3-.6.5-.8.6-2.2,1.4-4.4,3.1-6.8,4.3-8.2,4.3-16.9,6.3-25.7,7.5-5.3.7-10.7.9-16,.9-5.2,0-10.5-.4-15.7-1.3-4.4-.8-8.8-1.8-13.2-3-5.1-1.4-10-3.5-14.6-6.8-.9-.6-1.8-1.3-2.9-2.1,0,.6,0,17.3,0,25.3,0,3.7,1.1,6.5,3.2,8.8,2.4,2.7,5.2,4.4,8.2,5.9,5.2,2.6,10.7,4.2,16.2,5.3,5.3,1.1,10.5,1.7,15.8,1.9,9.1.3,18.2-.3,27.3-2.4,5.2-1.2,10.3-2.9,15.1-5.6,2.8-1.6,5.4-3.4,7.5-6.2,1.6-2.1,2.4-4.4,2.4-7.4,0-8.2,0-25.2,0-25.8Z"/>
          <path class="cls-1" d="M71.2,197c2.5,3.1,5.6,5.1,8.8,6.8,4.7,2.4,9.6,3.9,14.6,5.1,4.9,1.1,9.7,1.8,14.7,2.1,9.5.6,19,.1,28.4-1.9,5.7-1.2,11.3-2.9,16.7-5.9,2.9-1.6,5.6-3.5,7.8-6.4,1.5-2,2.4-4.4,2.3-7.3,0-8.2,0-25.3,0-25.7-1.1.8-2,1.5-3,2.2-7.7,5.2-16.1,7.6-24.7,9.1-4,.7-8,1.1-12,1.5-7.8.7-15.6.4-23.3-.7-5.6-.8-11.2-2-16.6-3.8-4.3-1.4-8.6-3.3-12.5-5.9-1.1-.7-2.1-1.5-3.3-2.4,0,.5,0,17.5,0,25.6,0,3.1.8,5.6,2.5,7.7Z"/>
          <path class="cls-5" d="M78.7,131c-2.8,1.6-5.4,3.4-7.6,6.3-1.8,2.4-2.8,5.1-2.1,8.5.5,2.1,1.6,3.8,2.8,5.2,2.8,3.1,6,5,9.4,6.6,6.1,2.9,12.5,4.5,18.9,5.5,5.4.9,10.9,1.3,15.3,1.2,10.3,0,19.4-1,28.4-3.7,4.5-1.3,8.9-3.1,12.9-5.8,2.2-1.5,4.4-3.3,6-5.8,2.1-3.4,2.2-7.4,0-10.7-.8-1.2-1.6-2.2-2.6-3.1-3.5-3.4-7.5-5.3-11.6-7-7.3-2.9-14.9-4.3-22.5-4.9-10.4-.9-20.8-.4-31.1,1.8-5.6,1.2-11.1,3-16.3,5.9Z"/>
        </g>
        <g class="cls-8">
          <path class="cls-6" d="M181.3,175.7c-4.4-.7-8.8-1.8-13.3-2.9-5.1-1.5-9.9-3.6-14.6-6.8-.8-.6-1.7-1.3-2.9-2,0,.6,0,17.3,0,25.2,0,3.8,1.1,6.5,3.2,8.8,2.4,2.6,5.2,4.4,8.2,5.9,5.2,2.6,10.6,4.2,16.2,5.3,5.2,1,10.5,1.7,15.8,1.8,3,0,6.1,0,9.1,0v-15.5c0,0,0-.6,0-.6,0-1.2,0-2.7,0-4.2,0-2.6,0-5.5,0-8.4v-5.5c-2,.2-4.1.2-6.2.2-5.2,0-10.5-.4-15.7-1.3Z"/>
          <path class="cls-6" d="M183,129.1c-5.6-.8-11.1-2-16.7-3.9-4.3-1.4-8.6-3.2-12.5-5.9-1-.7-2.1-1.6-3.3-2.4,0,.6,0,17.5,0,25.6,0,3,.8,5.5,2.5,7.6,2.6,3.1,5.6,5.1,8.8,6.7,4.7,2.5,9.6,4,14.6,5.1,4.8,1.1,9.7,1.8,14.6,2.1,4.1.3,8.1.4,12.1.2v-20.9c0-4,.3-8.6,3.2-13.6-7.7.6-15.6.4-23.3-.6Z"/>
          <path class="cls-6" d="M153.6,104.1c2.8,3.1,6,5,9.4,6.6,6.1,2.9,12.5,4.5,18.9,5.5,5.4.9,10.9,1.3,15.3,1.2,10.3,0,19.4-1,28.4-3.7,4.5-1.3,8.8-3.1,12.9-5.8,2.2-1.5,4.3-3.3,6-5.8,2.2-3.4,2.2-7.4,0-10.7-.7-1.2-1.6-2.2-2.5-3.1-3.5-3.4-7.5-5.3-11.6-7-7.3-2.9-14.9-4.3-22.5-4.9-10.4-.9-20.8-.4-31.1,1.8-5.6,1.2-11.1,2.9-16.3,5.9-2.8,1.6-5.5,3.4-7.6,6.3-1.8,2.4-2.8,5.1-2.1,8.5.5,2.2,1.6,3.8,2.8,5.2Z"/>
        </g>
      </g>
    </g>
  </g>
</svg>