<?xml version="1.0" encoding="UTF-8"?>
<svg xmlns="http://www.w3.org/2000/svg" version="1.1" viewBox="0 0 32 32">
  <defs>
    <style>
      .cls-1 {
        fill: #030303;
      }
    </style>
  </defs>
  <!-- Generator: Adobe Illustrator 28.6.0, SVG Export Plug-In . SVG Version: 1.2.0 Build 709)  -->
  <g>
    <g id="Layer_1">
      <path class="cls-1" d="M28.5,7.9l-.6-.3c0-.4,0-.7,0-1.1l.6-.3c.5-.3.6-.9.4-1.4-.3-.5-.9-.6-1.4-.4l-.6.3c-.3-.2-.6-.4-.9-.5v-.7c0-.6-.4-1-1-1s-1,.4-1,1v.7c-.3.1-.7.3-.9.5l-.6-.3c-.5-.3-1.1-.1-1.4.4-.3.5-.1,1.1.4,1.4l.6.3c0,.4,0,.7,0,1.1l-.6.3c-.5.3-.6.9-.4,1.4.2.3.5.5.9.5.2,0,.3,0,.5-.1l.6-.3c.3.2.6.4.9.5v.7c0,.6.4,1,1,1s1-.4,1-1v-.7c.3-.1.7-.3.9-.5l.6.3c.2,0,.3.1.5.1.6,0,1-.4,1-1,0-.4-.2-.7-.5-.9ZM24,7c0-.6.4-1,1-1s1,.4,1,1-.4,1-1,1-1-.4-1-1ZM27.7,13c-.5,0-.9.6-.8,1.2.1.6.2,1.2.2,1.8,0,2.7-1,5.3-2.8,7.3-1.1-1.6-2.7-2.9-4.5-3.6,2.6-2.1,3.1-5.8,1-8.4-2.1-2.6-5.8-3.1-8.4-1s-3.1,5.8-1,8.4c.3.4.6.7,1,1-1.8.7-3.4,2-4.5,3.6-4-4.5-3.6-11.5.9-15.5,2-1.8,4.6-2.8,7.3-2.8.6,0,1.2,0,1.8.2.5,0,1.1-.3,1.1-.8,0-.5-.3-1-.8-1.1C11.1,2,4.4,6.8,3.2,13.8c-1.2,7.1,3.6,13.8,10.7,15,7.1,1.2,13.8-3.6,15-10.7.2-1.4.2-2.9,0-4.3,0-.5-.6-.9-1.2-.8ZM12,15c0-2.2,1.8-4,4-4s4,1.8,4,4-1.8,4-4,4-4-1.8-4-4ZM9.3,24.7c2.4-3.7,7.3-4.8,11-2.4,1,.6,1.8,1.5,2.4,2.4-4,3.1-9.5,3.1-13.5,0Z"/>
    </g>
  </g>
</svg>