<?xml version="1.0" encoding="UTF-8"?>
<svg id="Layer_1" xmlns="http://www.w3.org/2000/svg" viewBox="0 0 51 52">
  <defs>
    <style>
      .cls-1 {
        stroke-miterlimit: 10;
      }

      .cls-1, .cls-2 {
        fill: none;
        stroke: #202126;
        stroke-width: 3px;
      }

      .cls-2 {
        stroke-linecap: round;
        stroke-linejoin: round;
      }
    </style>
  </defs>
  <path class="cls-1" d="M11.75,19.13v13.75c0,4.58,2.29,6.87,6.87,6.87h13.75c4.58,0,6.87-2.29,6.87-6.87v-6.87c0-1.37-.92-2.29-2.29-2.29s-2.29-.92-2.29-2.29v-2.29c0-4.58-2.29-6.87-6.87-6.87h-9.17c-4.58,0-6.87,2.29-6.87,6.87Z"/>
  <path class="cls-2" d="M20.91,21.42h4.58"/>
  <path class="cls-2" d="M20.91,30.58h9.17"/>
  <path class="cls-2" d="M32.37,48.92h-13.75c-11.46,0-16.04-4.58-16.04-16.04v-13.75C2.58,7.67,7.17,3.08,18.63,3.08h13.75c11.46,0,16.04,4.58,16.04,16.04v13.75c0,11.46-4.58,16.04-16.04,16.04Z"/>
</svg>