<?xml version="1.0" encoding="UTF-8"?>
<svg xmlns="http://www.w3.org/2000/svg" version="1.1" viewBox="0 0 256 256">
  <!-- Generator: Adobe Illustrator 28.6.0, SVG Export Plug-In . SVG Version: 1.2.0 Build 709)  -->
  <g>
    <g id="Layer_1">
      <g>
        <path d="M183.1,43.4h-110.5c-4.7,0-8.4-3.8-8.4-8.4s3.8-8.4,8.4-8.4h110.5c4.7,0,8.4,3.8,8.4,8.4s-3.8,8.4-8.4,8.4Z"/>
        <path d="M245.9,90.9H9.8c-4.7,0-8.4-3.8-8.4-8.4v-24.9c0-17.1,13.9-31,31-31h18c4.7,0,8.4,3.8,8.4,8.4s-3.8,8.4-8.4,8.4h-18c-7.8,0-14.1,6.3-14.1,14.1v16.5h219.2v-16.5c0-7.8-6.3-14.1-14.1-14.1h-18c-4.7,0-8.4-3.8-8.4-8.4s3.8-8.4,8.4-8.4h18c17.1,0,31,13.9,31,31v24.9c0,4.7-3.8,8.4-8.4,8.4Z"/>
        <path d="M223.3,251.8H32.4c-17.1,0-31-13.9-31-31V82.4c0-4.7,3.8-8.4,8.4-8.4h236c4.7,0,8.4,3.8,8.4,8.4v138.4c0,17.1-13.9,31-31,31ZM18.3,90.9v130c0,7.8,6.3,14.1,14.1,14.1h191c7.8,0,14.1-6.3,14.1-14.1V90.9H18.3Z"/>
        <path d="M68.2,146.1h-13.4c-4.1,0-7.3-3.3-7.3-7.3v-13.4c0-4.1,3.3-7.3,7.3-7.3h13.4c4.1,0,7.3,3.3,7.3,7.3v13.4c0,4.1-3.3,7.3-7.3,7.3Z"/>
        <path d="M134.5,146.1h-13.4c-4.1,0-7.3-3.3-7.3-7.3v-13.4c0-4.1,3.3-7.3,7.3-7.3h13.4c4.1,0,7.3,3.3,7.3,7.3v13.4c0,4.1-3.3,7.3-7.3,7.3Z"/>
        <path d="M200.9,146.1h-13.4c-4.1,0-7.3-3.3-7.3-7.3v-13.4c0-4.1,3.3-7.3,7.3-7.3h13.4c4.1,0,7.3,3.3,7.3,7.3v13.4c0,4.1-3.3,7.3-7.3,7.3Z"/>
        <path d="M68.2,203.8h-13.4c-4.1,0-7.3-3.3-7.3-7.3v-13.4c0-4.1,3.3-7.3,7.3-7.3h13.4c4.1,0,7.3,3.3,7.3,7.3v13.4c0,4.1-3.3,7.3-7.3,7.3Z"/>
        <path d="M134.5,203.8h-13.4c-4.1,0-7.3-3.3-7.3-7.3v-13.4c0-4.1,3.3-7.3,7.3-7.3h13.4c4.1,0,7.3,3.3,7.3,7.3v13.4c0,4.1-3.3,7.3-7.3,7.3Z"/>
        <path d="M200.9,203.8h-13.4c-4.1,0-7.3-3.3-7.3-7.3v-13.4c0-4.1,3.3-7.3,7.3-7.3h13.4c4.1,0,7.3,3.3,7.3,7.3v13.4c0,4.1-3.3,7.3-7.3,7.3Z"/>
        <path d="M65.3,57.7h-7.6c-4.1,0-7.3-3.3-7.3-7.3v-30.7c0-4.1,3.3-7.3,7.3-7.3h7.6c4.1,0,7.3,3.3,7.3,7.3v30.7c0,4.1-3.3,7.3-7.3,7.3Z"/>
        <path d="M198,57.7h-7.6c-4.1,0-7.3-3.3-7.3-7.3v-30.7c0-4.1,3.3-7.3,7.3-7.3h7.6c4.1,0,7.3,3.3,7.3,7.3v30.7c0,4.1-3.3,7.3-7.3,7.3Z"/>
      </g>
    </g>
  </g>
</svg>