<?xml version="1.0" encoding="UTF-8"?>
<svg xmlns="http://www.w3.org/2000/svg" version="1.1" viewBox="0 0 256 256">
  <!-- Generator: Adobe Illustrator 28.6.0, SVG Export Plug-In . SVG Version: 1.2.0 Build 709)  -->
  <g>
    <g id="Layer_1">
      <g>
        <path d="M127.9,254.3C58.1,254.3,1.4,197.6,1.4,127.9S58.1,1.4,127.9,1.4s126.4,56.7,126.4,126.4-56.7,126.4-126.4,126.4ZM127.9,26.7c-55.8,0-101.2,45.4-101.2,101.2s45.4,101.2,101.2,101.2,101.2-45.4,101.2-101.2S183.6,26.7,127.9,26.7Z"/>
        <path d="M187.1,115.2h-46.6v-46.6c0-7-5.7-12.6-12.6-12.6s-12.6,5.7-12.6,12.6v59.2c0,7,5.7,12.6,12.6,12.6h59.2c7,0,12.6-5.7,12.6-12.6s-5.7-12.6-12.6-12.6Z"/>
      </g>
    </g>
  </g>
</svg>