<?xml version="1.0" encoding="UTF-8"?>
<svg id="Layer_1" xmlns="http://www.w3.org/2000/svg" viewBox="0 0 51 52">
  <defs>
    <style>
      .cls-1 {
        fill: #fff;
        fill-rule: evenodd;
      }

      .cls-2 {
        opacity: .4;
      }
    </style>
  </defs>
  <path class="cls-1" d="M46.28,36.91c-.1.08-.15.12-.21.15-.58.37-1.14.79-1.74,1.1-2.11,1.11-4.33,1.63-6.58,1.93-1.37.18-2.74.24-4.11.23-1.35,0-2.69-.09-4.02-.33-1.13-.2-2.26-.46-3.38-.77-1.31-.36-2.57-.91-3.76-1.74-.23-.17-.47-.34-.74-.53,0,.14.02,4.44,0,6.49-.01.95.29,1.66.82,2.25.62.69,1.34,1.14,2.1,1.52,1.34.67,2.74,1.08,4.16,1.37,1.35.27,2.7.43,4.06.48,2.35.09,4.68-.08,6.99-.62,1.33-.31,2.63-.74,3.87-1.44.71-.4,1.38-.87,1.93-1.59.4-.53.61-1.14.6-1.89-.01-2.09,0-6.45,0-6.61Z"/>
  <path class="cls-1" d="M22.38,33.44c.64.81,1.43,1.31,2.25,1.73,1.2.62,2.46,1.01,3.73,1.3,1.24.29,2.5.46,3.76.54,2.44.16,4.86.03,7.28-.48,1.47-.31,2.91-.76,4.28-1.51.73-.4,1.43-.89,2-1.63.39-.52.6-1.12.6-1.87-.02-2.1-.01-6.48-.02-6.59-.28.2-.52.39-.78.56-1.99,1.33-4.14,1.94-6.34,2.34-1.02.18-2.06.29-3.09.38-2,.17-3.99.09-5.98-.18-1.44-.19-2.87-.5-4.27-.98-1.11-.37-2.19-.83-3.21-1.53-.27-.19-.54-.39-.85-.61,0,.14.01,4.49,0,6.56,0,.8.21,1.43.64,1.97Z"/>
  <path class="cls-1" d="M24.29,16.5c-.72.4-1.4.87-1.94,1.61-.46.61-.73,1.3-.53,2.17.12.55.4.98.73,1.35.71.8,1.55,1.29,2.41,1.71,1.57.74,3.2,1.15,4.85,1.42,1.4.22,2.8.34,3.93.31,2.64,0,4.98-.26,7.28-.94,1.15-.34,2.27-.79,3.32-1.5.58-.39,1.12-.84,1.53-1.5.55-.88.56-1.89,0-2.75-.19-.3-.42-.57-.65-.8-.89-.87-1.92-1.37-2.98-1.78-1.88-.74-3.82-1.1-5.78-1.27-2.67-.23-5.33-.11-7.98.47-1.43.32-2.84.76-4.18,1.51Z"/>
  <g class="cls-2">
    <path class="cls-1" d="M12.61,28.49c-1.13-.19-2.27-.45-3.4-.76-1.3-.38-2.55-.92-3.76-1.75-.21-.17-.45-.33-.73-.52,0,.14.02,4.44,0,6.47-.02.97.28,1.68.83,2.27.61.66,1.35,1.13,2.1,1.51,1.32.66,2.72,1.09,4.16,1.37,1.35.26,2.69.43,4.06.47.78.02,1.56.02,2.34-.02v-.38l-.02-3.59v-.14c0-.31.02-.68,0-1.09.02-.66.02-1.42.02-2.15v-1.42c-.52.05-1.06.05-1.58.05-1.35,0-2.69-.09-4.02-.33Z"/>
    <path class="cls-1" d="M13.06,16.54c-1.44-.21-2.86-.52-4.28-.99-1.11-.35-2.2-.83-3.21-1.51-.26-.19-.54-.4-.85-.61,0,.14.02,4.49,0,6.57,0,.78.21,1.42.64,1.96.66.8,1.44,1.3,2.27,1.72,1.2.64,2.46,1.02,3.73,1.3,1.23.28,2.48.47,3.76.54,1.04.07,2.08.09,3.09.05l-.02-5.36c0-1.02.09-2.2.85-3.5-1.98.17-3.99.09-5.98-.17Z"/>
    <path class="cls-1" d="M5.52,10.13c.71.8,1.55,1.29,2.41,1.71,1.57.74,3.2,1.15,4.85,1.42,1.39.22,2.8.34,3.93.31,2.64,0,4.98-.26,7.28-.94,1.15-.34,2.27-.79,3.32-1.49.58-.39,1.12-.84,1.53-1.5.55-.87.56-1.89,0-2.75-.19-.3-.41-.57-.65-.8-.89-.86-1.92-1.37-2.98-1.78-1.88-.74-3.82-1.1-5.78-1.27-2.67-.22-5.33-.11-7.98.47-1.44.31-2.84.76-4.18,1.5-.72.4-1.4.87-1.95,1.61-.46.61-.72,1.3-.53,2.17.12.55.4.98.73,1.35Z"/>
  </g>
</svg>