<?xml version="1.0" encoding="UTF-8"?>
<svg xmlns="http://www.w3.org/2000/svg" version="1.1" viewBox="0 0 51 52">
  <defs>
    <style>
      .cls-1 {
        fill: none;
        stroke: #fff;
        stroke-linecap: round;
        stroke-linejoin: round;
        stroke-width: 3px;
      }
    </style>
  </defs>
  <!-- Generator: Adobe Illustrator 28.6.0, SVG Export Plug-In . SVG Version: 1.2.0 Build 709)  -->
  <g>
    <g id="Layer_1">
      <path class="cls-1" d="M36.7,42.6H14.4c-1,0-2.1-.8-2.4-1.7L2.2,13.4c-1.4-3.9.2-5.1,3.6-2.7l9.2,6.6c1.5,1.1,3.3.5,4-1.2l4.2-11.1c1.3-3.6,3.5-3.6,4.9,0l4.2,11.1c.7,1.7,2.4,2.3,3.9,1.2l8.7-6.2c3.7-2.6,5.5-1.3,4,3l-9.6,26.8c-.4.9-1.5,1.7-2.5,1.7h0Z"/>
      <path class="cls-1" d="M12.6,49.7h26.1"/>
      <path class="cls-1" d="M19.7,30.8h11.9"/>
    </g>
  </g>
</svg>