<?xml version="1.0" encoding="UTF-8"?>
<svg xmlns="http://www.w3.org/2000/svg" version="1.1" viewBox="0 0 32 32">
  <defs>
    <style>
      .cls-1 {
        fill: #f10909;
      }
    </style>
  </defs>
  <!-- Generator: Adobe Illustrator 28.6.0, SVG Export Plug-In . SVG Version: 1.2.0 Build 709)  -->
  <g>
    <g id="Layer_1">
      <path class="cls-1" d="M27,6h-5v-1c0-1.7-1.3-3-3-3h-6c-1.7,0-3,1.3-3,3v1h-5c-.6,0-1,.4-1,1s.4,1,1,1h1v18c0,1.1.9,2,2,2h16c1.1,0,2-.9,2-2V8h1c.6,0,1-.4,1-1s-.4-1-1-1ZM12,5c0-.6.4-1,1-1h6c.6,0,1,.4,1,1v1h-8v-1ZM24,26H8V8h16v18ZM14,13v8c0,.6-.4,1-1,1s-1-.4-1-1v-8c0-.6.4-1,1-1s1,.4,1,1ZM20,13v8c0,.6-.4,1-1,1s-1-.4-1-1v-8c0-.6.4-1,1-1s1,.4,1,1Z"/>
    </g>
  </g>
</svg>