<?xml version="1.0" encoding="UTF-8"?>
<svg xmlns="http://www.w3.org/2000/svg" version="1.1" viewBox="0 0 28 25">
  <defs>
    <style>
      .cls-1 {
        fill: none;
        stroke: #fff;
        stroke-linecap: round;
        stroke-linejoin: round;
        stroke-width: 1.5px;
      }
    </style>
  </defs>
  <!-- Generator: Adobe Illustrator 28.6.0, SVG Export Plug-In . SVG Version: 1.2.0 Build 709)  -->
  <g>
    <g id="Layer_1">
      <path class="cls-1" d="M13.1,4.3h-1.7c-4.2,0-5.8,1.7-5.8,5.8v5c0,4.2,1.7,5.8,5.8,5.8h5c4.2,0,5.8-1.7,5.8-5.8v-1.7"/>
      <path class="cls-1" d="M17.3,5.1l-6.6,6.6c-.2.2-.5.7-.5,1.1l-.4,2.5c-.1.9.5,1.5,1.4,1.4l2.5-.4c.4,0,.8-.3,1.1-.5l6.6-6.6c1.1-1.1,1.7-2.4,0-4.1-1.7-1.7-3-1.1-4.1,0Z"/>
      <path class="cls-1" d="M16.3,6.1c.6,2,2.1,3.5,4.1,4.1"/>
    </g>
  </g>
</svg>