<?xml version="1.0" encoding="UTF-8"?>
<svg xmlns="http://www.w3.org/2000/svg" version="1.1" viewBox="0 0 800 800">
  <defs>
    <style>
      .cls-1, .cls-2 {
        fill: none;
        stroke: #000;
        stroke-miterlimit: 133.3;
        stroke-width: 50px;
      }

      .cls-2 {
        stroke-linecap: round;
      }
    </style>
  </defs>
  <!-- Generator: Adobe Illustrator 28.6.0, SVG Export Plug-In . SVG Version: 1.2.0 Build 709)  -->
  <g>
    <g id="Layer_1">
      <path class="cls-2" d="M350.1,167.2l-17.9-45.3c-11.5-29.2-52.9-29.2-64.4,0l-35.7,90.6c-3.5,8.9-10.6,16-19.5,19.5l-90.6,35.7c-29.2,11.5-29.2,52.9,0,64.4l90.6,35.7c8.9,3.5,16,10.6,19.5,19.5l35.7,90.6c11.5,29.2,52.9,29.2,64.4,0l35.7-90.6c3.5-8.9,10.6-16,19.5-19.5l90.6-35.7c29.2-11.5,29.2-52.9,0-64.4l-45.3-17.9"/>
      <path class="cls-1" d="M549.6,444.9c6.1-15.5,28-15.5,34.1,0l26.7,67.7c1.9,4.7,5.6,8.5,10.3,10.3l67.7,26.7c15.5,6.1,15.5,28,0,34.1l-67.7,26.7c-4.7,1.9-8.5,5.6-10.3,10.3l-26.7,67.7c-6.1,15.5-28,15.5-34.1,0l-26.7-67.7c-1.9-4.7-5.6-8.5-10.3-10.3l-67.7-26.7c-15.5-6.1-15.5-28,0-34.1l67.7-26.7c4.7-1.9,8.5-5.6,10.3-10.3l26.7-67.7Z"/>
    </g>
  </g>
</svg>