<?xml version="1.0" encoding="UTF-8"?>
<svg xmlns="http://www.w3.org/2000/svg" version="1.1" viewBox="0 0 32 32">
  <defs>
    <style>
      .cls-1 {
        fill: #030303;
      }
    </style>
  </defs>
  <!-- Generator: Adobe Illustrator 28.6.0, SVG Export Plug-In . SVG Version: 1.2.0 Build 709)  -->
  <g>
    <g id="Layer_1">
      <path class="cls-1" d="M28.5,21.9c-.5.3-1.1.1-1.4-.4,0,0,0,0,0,0l-2.4-4.1c-1.4.9-2.9,1.6-4.5,2.1l.7,4.4c0,.5-.3,1.1-.8,1.2,0,0,0,0,0,0,0,0-.1,0-.2,0-.5,0-.9-.4-1-.8l-.7-4.3c-1.5.2-3.1.2-4.6,0l-.7,4.3c0,.5-.5.8-1,.8,0,0-.1,0-.2,0-.5,0-.9-.6-.8-1.2,0,0,0,0,0,0l.7-4.4c-1.6-.4-3.1-1.2-4.5-2.1l-2.4,4.2c-.3.5-.9.6-1.4.4-.5-.3-.6-.9-.4-1.4h0l2.5-4.4c-.9-.8-1.7-1.6-2.4-2.5-.4-.4-.3-1,0-1.4s1-.3,1.4,0c0,0,0,0,0,0,2.1,2.6,5.7,5.6,11.2,5.6s9.1-3.1,11.2-5.6c.3-.5.9-.6,1.4-.3.5.3.6.9.3,1.4,0,0,0,0,0,.1-.7.9-1.5,1.7-2.4,2.5l2.5,4.4c.3.5.1,1.1-.4,1.4,0,0,0,0,0,0Z"/>
    </g>
  </g>
</svg>