<?xml version="1.0" encoding="UTF-8"?>
<svg xmlns="http://www.w3.org/2000/svg" version="1.1" viewBox="0 0 32 32">
  <defs>
    <style>
      .cls-1 {
        fill: #030303;
      }
    </style>
  </defs>
  <!-- Generator: Adobe Illustrator 28.6.0, SVG Export Plug-In . SVG Version: 1.2.0 Build 709)  -->
  <g>
    <g id="Layer_1">
      <path class="cls-1" d="M30.9,15.6c0,0-1.1-2.4-3.5-4.8-3.1-3.1-7.1-4.8-11.5-4.8s-8.3,1.7-11.5,4.8c-2.4,2.4-3.4,4.7-3.5,4.8-.1.3-.1.6,0,.8,0,0,1.1,2.4,3.5,4.8,3.1,3.1,7.1,4.8,11.5,4.8s8.3-1.7,11.5-4.8c2.4-2.4,3.4-4.7,3.5-4.8.1-.3.1-.6,0-.8ZM16,24c-3.8,0-7.2-1.4-10-4.2-1.1-1.1-2.1-2.4-2.9-3.8.8-1.4,1.7-2.7,2.9-3.8,2.8-2.8,6.1-4.2,10-4.2s7.2,1.4,10,4.2c1.1,1.1,2.1,2.4,2.9,3.8-.9,1.7-4.8,8-12.9,8ZM16,10c-3.3,0-6,2.7-6,6s2.7,6,6,6,6-2.7,6-6c0-3.3-2.7-6-6-6ZM16,20c-2.2,0-4-1.8-4-4s1.8-4,4-4,4,1.8,4,4-1.8,4-4,4Z"/>
    </g>
  </g>
</svg>