<?xml version="1.0" encoding="UTF-8"?>
<svg id="Layer_1" xmlns="http://www.w3.org/2000/svg" viewBox="0 0 51 52">
  <defs>
    <style>
      .cls-1 {
        fill: none;
        stroke: #202126;
        stroke-linecap: round;
        stroke-linejoin: round;
        stroke-width: 3px;
      }
    </style>
  </defs>
  <path class="cls-1" d="M32.21,3h-13.63C7.21,3,2.67,7.55,2.67,18.91v13.63c0,11.36,4.54,15.91,15.91,15.91h4.54v-16.36h-3.86c-.45,0-.68-.23-.68-.68v-4.32c0-.46.23-.68.68-.68h3.86v-7.5c0-3.86,2.95-6.82,6.82-6.82h6.14c.45,0,.68.23.68.68v5.45c0,.46-.23.68-.68.68h-5.45c-.45,0-.68.23-.68.68v6.59h5.91c.45,0,.68.45.68.91l-.91,4.32c0,.23-.45.46-.68.46h-5v16.59h2.28c11.36,0,15.91-4.55,15.91-15.91v-13.63c0-11.36-4.54-15.91-15.91-15.91Z"/>
</svg>