<?xml version="1.0" encoding="UTF-8"?>
<svg xmlns="http://www.w3.org/2000/svg" version="1.1" viewBox="0 0 28 25">
  <defs>
    <style>
      .cls-1 {
        fill: none;
        stroke: #202126;
        stroke-linecap: round;
        stroke-linejoin: round;
        stroke-width: 1.5px;
      }
    </style>
  </defs>
  <!-- Generator: Adobe Illustrator 28.6.0, SVG Export Plug-In . SVG Version: 1.2.0 Build 709)  -->
  <g>
    <g id="Layer_1">
      <g>
        <path class="cls-1" d="M11.7,10c1.5.5,3.1.5,4.6,0"/>
        <path class="cls-1" d="M18,4.2h-8c-1.8,0-3.2,1.4-3.2,3.2v11.7c0,1.5,1.1,2.1,2.4,1.4l4.1-2.3c.4-.2,1.1-.2,1.6,0l4.1,2.3c1.3.7,2.4.1,2.4-1.4V7.4c0-1.8-1.4-3.2-3.2-3.2Z"/>
        <path class="cls-1" d="M18,4.2h-8c-1.8,0-3.2,1.4-3.2,3.2v11.7c0,1.5,1.1,2.1,2.4,1.4l4.1-2.3c.4-.2,1.1-.2,1.6,0l4.1,2.3c1.3.7,2.4.1,2.4-1.4V7.4c0-1.8-1.4-3.2-3.2-3.2Z"/>
      </g>
    </g>
  </g>
</svg>