<?xml version="1.0" encoding="UTF-8"?>
<svg xmlns="http://www.w3.org/2000/svg" version="1.1" viewBox="0 0 28 25">
  <defs>
    <style>
      .cls-1 {
        fill: none;
        stroke: #fff;
        stroke-linecap: round;
        stroke-linejoin: round;
        stroke-width: 1.5px;
      }
    </style>
  </defs>
  <!-- Generator: Adobe Illustrator 28.6.0, SVG Export Plug-In . SVG Version: 1.2.0 Build 709)  -->
  <g>
    <g id="Layer_1">
      <g id="Layer_1-2" data-name="Layer_1">
        <path class="cls-1" d="M11.2,20.6h5c4.2,0,5.8-1.7,5.8-5.8v-5c0-4.2-1.7-5.8-5.8-5.8h-5c-4.2,0-5.8,1.7-5.8,5.8v5c0,4.2,1.7,5.8,5.8,5.8Z"/>
        <path class="cls-1" d="M11.2,10.6c.9,0,1.7-.7,1.7-1.7s-.7-1.7-1.7-1.7-1.7.7-1.7,1.7.7,1.7,1.7,1.7Z"/>
        <path class="cls-1" d="M6,18.1l4.1-2.8c.7-.4,1.6-.4,2.2.1l.3.2c.6.6,1.7.6,2.3,0l3.5-3c.6-.6,1.7-.6,2.4,0l1.4,1.2"/>
      </g>
    </g>
  </g>
</svg>