<?xml version="1.0" encoding="UTF-8"?>
<svg xmlns="http://www.w3.org/2000/svg" version="1.1" viewBox="0 0 64 64">
  <defs>
    <style>
      .cls-1 {
        fill: none;
        stroke: #222;
        stroke-linecap: round;
        stroke-linejoin: round;
        stroke-width: 3px;
      }
    </style>
  </defs>
  <!-- Generator: Adobe Illustrator 28.6.0, SVG Export Plug-In . SVG Version: 1.2.0 Build 709)  -->
  <g>
    <g id="gift">
      <path class="cls-1" d="M44.1,17.2c.4-.2.8-.4,1.1-.7,2.9-2.1,3.8-5.8,2-8.4s-5.7-3-8.6-.9-4.4,5.7-6,10h11.5ZM8.7,30.5h46.6v23.7c0,2.2-1.8,4-4,4H12.7c-2.2,0-4-1.8-4-4v-23.7h0Z"/>
      <rect class="cls-1" x="26.1" y="30.5" width="11.7" height="27.7"/>
      <path class="cls-1" d="M19.9,17.2c-.4-.2-.8-.4-1.1-.7-2.9-2.1-3.8-5.8-2-8.4s5.7-3,8.6-.9,4.4,5.7,6.1,10h-11.5Z"/>
      <rect class="cls-1" x="6.5" y="17.2" width="51" height="13.3" rx="3" ry="3"/>
      <rect class="cls-1" x="25.1" y="17.2" width="13.8" height="13.3"/>
    </g>
  </g>
</svg>