<?xml version="1.0" encoding="UTF-8"?>
<svg id="Layer_1" xmlns="http://www.w3.org/2000/svg" viewBox="0 0 51 52">
  <defs>
    <style>
      .cls-1 {
        stroke-linejoin: round;
      }

      .cls-1, .cls-2 {
        fill: none;
        stroke: #202126;
        stroke-linecap: round;
        stroke-width: 3px;
      }
    </style>
  </defs>
  <path class="cls-1" d="M18.39,21.27c2.61,0,4.73-2.12,4.73-4.73s-2.12-4.73-4.73-4.73-4.73,2.12-4.73,4.73,2.12,4.73,4.73,4.73Z"/>
  <path class="cls-1" d="M27.87,2.33h-9.47C6.57,2.33,1.83,7.07,1.83,18.9v14.2c0,11.83,4.73,16.57,16.57,16.57h14.2c11.83,0,16.57-4.73,16.57-16.57v-11.83"/>
  <path class="cls-2" d="M34.37,9.43h13.02"/>
  <path class="cls-2" d="M40.88,15.94V2.93"/>
  <path class="cls-1" d="M3.42,42.45l11.67-7.84c1.87-1.25,4.57-1.11,6.25.33l.78.69c1.85,1.58,4.83,1.58,6.67,0l9.85-8.45c1.85-1.59,4.83-1.59,6.67,0l3.86,3.31"/>
</svg>