<?xml version="1.0" encoding="UTF-8"?>
<svg id="Layer_1" xmlns="http://www.w3.org/2000/svg" viewBox="0 0 51 52">
  <defs>
    <style>
      .cls-1 {
        fill: none;
        stroke: #202126;
        stroke-linecap: round;
        stroke-linejoin: round;
        stroke-width: 3px;
      }
    </style>
  </defs>
  <path class="cls-1" d="M49.17,17.76V7.02c0-3.34-1.51-4.69-5.28-4.69h-9.56c-3.76,0-5.28,1.35-5.28,4.69v10.72c0,3.36,1.51,4.69,5.28,4.69h9.56c3.76.02,5.28-1.33,5.28-4.66Z"/>
  <path class="cls-1" d="M49.17,44.39v-9.56c0-3.76-1.51-5.28-5.28-5.28h-9.56c-3.76,0-5.28,1.51-5.28,5.28v9.56c0,3.76,1.51,5.28,5.28,5.28h9.56c3.76,0,5.28-1.51,5.28-5.28Z"/>
  <path class="cls-1" d="M21.95,17.76V7.02c0-3.34-1.51-4.69-5.28-4.69H7.11C3.35,2.33,1.83,3.68,1.83,7.02v10.72c0,3.36,1.51,4.69,5.28,4.69h9.56c3.76.02,5.28-1.33,5.28-4.66Z"/>
  <path class="cls-1" d="M21.95,44.39v-9.56c0-3.76-1.51-5.28-5.28-5.28H7.11c-3.76,0-5.28,1.51-5.28,5.28v9.56c0,3.76,1.51,5.28,5.28,5.28h9.56c3.76,0,5.28-1.51,5.28-5.28Z"/>
</svg>