<?xml version="1.0" encoding="UTF-8"?>
<svg xmlns="http://www.w3.org/2000/svg" version="1.1" viewBox="0 0 28 25">
  <defs>
    <style>
      .cls-1 {
        stroke-linecap: round;
        stroke-linejoin: round;
      }

      .cls-1, .cls-2 {
        fill: none;
        stroke: #fff;
        stroke-width: 1.5px;
      }

      .cls-2 {
        stroke-miterlimit: 10;
      }
    </style>
  </defs>
  <!-- Generator: Adobe Illustrator 28.6.0, SVG Export Plug-In . SVG Version: 1.2.0 Build 709)  -->
  <g>
    <g id="Layer_1">
      <g id="Layer_1-2" data-name="Layer_1">
        <g>
          <path class="cls-2" d="M10.2,17.8l2.6,2c.3.3,1.1.5,1.6.5h3.2c1,0,2.1-.8,2.3-1.8l2-6.1c.4-1.2-.3-2.2-1.6-2.2h-3.3c-.5,0-.9-.4-.8-1l.4-2.7c.2-.8-.3-1.6-1.1-1.8-.7-.2-1.5,0-1.8.6l-3.4,5.1"/>
          <path class="cls-1" d="M6,17.8v-8.2c0-1.2.5-1.6,1.7-1.6h.8c1.2,0,1.7.4,1.7,1.6v8.2c0,1.2-.5,1.6-1.7,1.6h-.8c-1.2,0-1.7-.4-1.7-1.6Z"/>
        </g>
      </g>
    </g>
  </g>
</svg>