<?xml version="1.0" encoding="UTF-8"?>
<svg id="Layer_1" xmlns="http://www.w3.org/2000/svg" viewBox="0 0 51 52">
  <path d="M38.77,28.77H12.23c-.9,0-1.63-.73-1.63-1.63s.73-1.63,1.63-1.63h26.55c.9,0,1.63.73,1.63,1.63s-.73,1.63-1.63,1.63Z"/>
  <path d="M38.77,20.97H12.23c-.9,0-1.63-.73-1.63-1.63s.73-1.63,1.63-1.63h26.55c.9,0,1.63.73,1.63,1.63s-.73,1.63-1.63,1.63Z"/>
  <path d="M14.55,45.47c-.42,0-.84-.16-1.15-.48l-5.05-5.05h-1.94c-2.98,0-5.41-2.42-5.41-5.41V11.94c0-2.98,2.42-5.41,5.41-5.41h38.19c2.98,0,5.41,2.42,5.41,5.41v22.6c0,2.98-2.42,5.41-5.41,5.41h-23.84l-5.05,5.05c-.32.32-.74.48-1.15.48ZM6.41,9.8c-1.18,0-2.14.96-2.14,2.14v22.6c0,1.18.96,2.14,2.14,2.14h2.62c.43,0,.85.17,1.15.48l4.37,4.37,4.37-4.37c.31-.31.72-.48,1.15-.48h24.52c1.18,0,2.14-.96,2.14-2.14V11.94c0-1.18-.96-2.14-2.14-2.14,0,0-38.19,0-38.19,0Z"/>
</svg>