<?xml version="1.0" encoding="UTF-8"?>
<svg id="Layer_1" xmlns="http://www.w3.org/2000/svg" viewBox="0 0 51 52">
  <defs>
    <style>
      .cls-1 {
        stroke: #000;
        stroke-miterlimit: 10;
      }
    </style>
  </defs>
  <path class="cls-1" d="M46.63,42.32H4.37c-.85,0-1.58-.55-1.83-1.36-.24-.81.07-1.67.77-2.14.49-.33,1.08-.64,1.79-.94,3.05-1.39,3.55-8.85,3.95-14.85.1-1.51.2-2.94.33-4.23,1.06-7.04,4.45-11.57,10.07-13.49.96-2.47,3.39-4.17,6.06-4.17s5.1,1.69,6.06,4.17c5.62,1.92,9,6.45,10.06,13.45.14,1.33.23,2.76.33,4.27.4,6,.9,13.46,3.96,14.86.69.3,1.28.61,1.77.94.71.47,1.02,1.33.77,2.14-.24.81-.98,1.36-1.83,1.36ZM25.5,2.76c-2.11,0-4.02,1.41-4.65,3.43l-.13.4-.4.13c-5.29,1.67-8.34,5.68-9.34,12.28-.12,1.22-.22,2.64-.32,4.14-.45,6.76-.96,14.43-4.91,16.22-.62.27-1.14.54-1.55.81-.15.1-.14.23-.12.32.03.09.1.2.27.2h42.26c.18,0,.25-.11.27-.2.03-.09.03-.22-.12-.32h0c-.41-.27-.93-.54-1.54-.81-3.96-1.8-4.47-9.47-4.92-16.23-.1-1.5-.19-2.92-.32-4.18-.99-6.55-4.05-10.57-9.33-12.24l-.4-.13-.13-.4c-.63-2.02-2.54-3.43-4.65-3.43Z"/>
  <path class="cls-1" d="M19.01,44.39c.01,3.57,2.92,6.47,6.49,6.47s6.48-2.9,6.49-6.47h-12.97ZM25.5,49.24c-2.11,0-3.9-1.35-4.58-3.23h9.15c-.68,1.88-2.47,3.23-4.58,3.23Z"/>
</svg>