<?xml version="1.0" encoding="UTF-8"?>
<svg id="Layer_1" xmlns="http://www.w3.org/2000/svg" viewBox="0 0 51 52">
  <defs>
    <style>
      .cls-1 {
        fill: none;
        stroke: #202126;
        stroke-linecap: round;
        stroke-linejoin: round;
        stroke-width: 3px;
      }
    </style>
  </defs>
  <path class="cls-1" d="M25.48,33.24c4,0,7.25-3.24,7.25-7.25s-3.24-7.25-7.25-7.25-7.25,3.24-7.25,7.25,3.24,7.25,7.25,7.25Z"/>
  <path class="cls-1" d="M1.33,28.13v-4.25c0-2.51,2.05-4.59,4.59-4.59,4.37,0,6.16-3.09,3.96-6.88-1.26-2.17-.51-5,1.69-6.25l4.18-2.39c1.91-1.14,4.37-.46,5.51,1.45l.27.46c2.17,3.79,5.75,3.79,7.95,0l.27-.46c1.14-1.91,3.6-2.59,5.51-1.45l4.18,2.39c2.2,1.26,2.95,4.08,1.69,6.25-2.2,3.79-.41,6.88,3.96,6.88,2.51,0,4.59,2.05,4.59,4.59v4.25c0,2.51-2.05,4.59-4.59,4.59-4.37,0-6.16,3.09-3.96,6.88,1.26,2.2.51,5-1.69,6.26l-4.18,2.39c-1.91,1.13-4.37.46-5.51-1.45l-.27-.46c-2.17-3.79-5.75-3.79-7.95,0l-.27.46c-1.14,1.91-3.6,2.58-5.51,1.45l-4.18-2.39c-2.2-1.26-2.95-4.08-1.69-6.26,2.2-3.79.41-6.88-3.96-6.88-2.54,0-4.59-2.08-4.59-4.59Z"/>
</svg>