<?xml version="1.0" encoding="UTF-8"?>
<svg xmlns="http://www.w3.org/2000/svg" version="1.1" viewBox="0 0 20 23">
  <defs>
    <style>
      .cls-1 {
        fill: #202126;
        fill-rule: evenodd;
      }
    </style>
  </defs>
  <!-- Generator: Adobe Illustrator 28.6.0, SVG Export Plug-In . SVG Version: 1.2.0 Build 709)  -->
  <g>
    <g id="Layer_1">
      <path class="cls-1" d="M9.7,13.4l3,4.9c.1.2.3.2.4.2,0,0,.3,0,.4-.3l3.8-12.9c0-.2,0-.4-.1-.4,0,0-.2-.2-.4-.1l-12.9,3.8c-.2,0-.3.3-.3.4,0,0,0,.3.2.4l5,3.1,4.4-4.5c.2-.2.6-.2.9,0,.2.2.2.6,0,.9l-4.4,4.5ZM13.1,19.8c-.6,0-1.1-.3-1.4-.8l-3.2-5.2-5.3-3.3c-.6-.4-.9-1-.8-1.7,0-.7.6-1.2,1.2-1.4l12.9-3.8c.6-.2,1.2,0,1.7.4.4.4.6,1.1.4,1.7l-3.8,12.9c-.2.6-.7,1.1-1.4,1.2,0,0-.2,0-.2,0Z"/>
    </g>
  </g>
</svg>