<?xml version="1.0" encoding="UTF-8"?>
<svg xmlns="http://www.w3.org/2000/svg" version="1.1" viewBox="0 0 32 32">
  <!-- Generator: Adobe Illustrator 28.6.0, SVG Export Plug-In . SVG Version: 1.2.0 Build 709)  -->
  <g>
    <g id="Layer_1">
      <path d="M30.6,18.8c-.4.3-1.1.2-1.4-.2-1.2-1.6-3.2-2.6-5.2-2.6-.4,0-.8-.2-.9-.6-.1-.2-.1-.5,0-.8.2-.4.5-.6.9-.6,1.7,0,3-1.3,3-3s-1.3-3-3-3c-1.4,0-2.6.9-2.9,2.2-.1.5-.7.9-1.2.7s-.9-.7-.7-1.2c.7-2.7,3.4-4.3,6.1-3.6,2.7.7,4.3,3.4,3.6,6.1-.2.9-.8,1.8-1.5,2.4,1.4.6,2.5,1.5,3.4,2.7.3.4.2,1.1-.2,1.4,0,0,0,0,0,0ZM23.9,26.5c.3.5.2,1.1-.3,1.4-.5.3-1.1.2-1.4-.3,0,0,0,0,0,0-2-3.4-6.4-4.5-9.8-2.5-1,.6-1.9,1.5-2.5,2.5-.3.5-.9.7-1.3.4-.5-.3-.7-.9-.4-1.3,0,0,0,0,0,0,1-1.7,2.4-3,4.2-3.7-2.6-2-3.1-5.8-1.1-8.4,2-2.6,5.8-3.1,8.4-1.1s3.1,5.8,1.1,8.4c-.3.4-.7.8-1.1,1.1,1.8.8,3.2,2.1,4.2,3.7ZM16,22c2.2,0,4-1.8,4-4s-1.8-4-4-4-4,1.8-4,4,1.8,4,4,4ZM9,15c0-.6-.4-1-1-1-1.7,0-3-1.3-3-3s1.3-3,3-3c1.4,0,2.6.9,2.9,2.2.1.5.7.9,1.2.7s.9-.7.7-1.2h0c-.7-2.7-3.4-4.3-6.1-3.6-2.7.7-4.3,3.4-3.6,6.1.2.9.8,1.8,1.5,2.4-1.4.6-2.5,1.5-3.4,2.7-.3.4-.2,1.1.2,1.4.4.3,1.1.2,1.4-.2h0c1.2-1.6,3.2-2.6,5.2-2.6.6,0,1-.4,1-1Z"/>
    </g>
  </g>
</svg>