<?xml version="1.0" encoding="UTF-8"?>
<svg xmlns="http://www.w3.org/2000/svg" version="1.1" viewBox="0 0 256 256">
  <!-- Generator: Adobe Illustrator 28.6.0, SVG Export Plug-In . SVG Version: 1.2.0 Build 709)  -->
  <g>
    <g id="Layer_1">
      <g>
        <path d="M243.4,254.3h-17c0-54.3-44.2-98.5-98.5-98.5S29.4,200,29.4,254.3H12.3c0-63.7,51.8-115.5,115.5-115.5s115.5,51.8,115.5,115.5Z"/>
        <path d="M127.9,132c-36,0-65.3-29.3-65.3-65.3S91.8,1.4,127.9,1.4s65.3,29.3,65.3,65.3-29.3,65.3-65.3,65.3ZM127.9,18.5c-26.6,0-48.3,21.7-48.3,48.3s21.7,48.3,48.3,48.3,48.3-21.7,48.3-48.3c0-26.6-21.7-48.3-48.3-48.3Z"/>
      </g>
    </g>
  </g>
</svg>