<?xml version="1.0" encoding="UTF-8"?>
<svg id="Layer_2" xmlns="http://www.w3.org/2000/svg" viewBox="0 0 3074 3074">
  <defs>
    <style>
      .cls-1 {
        fill: #fff;
      }

      .cls-2 {
        fill: #3897f1;
      }
    </style>
  </defs>
  <g id="Badge_1_-_Orange">
    <g>
      <path class="cls-2" d="M3074,1537c0,127.01-249.06,219.6-280.46,336.8-32.33,121.23,136.13,325.83,74.71,431.93-62.24,107.61-324.23,63.5-411.63,150.9-87.29,87.41-43.19,349.27-150.92,411.62-106.11,61.43-310.71-107.15-431.83-74.7-117.2,31.29-209.8,280.45-336.81,280.45s-219.73-249.16-336.81-280.45c-121.24-32.45-325.84,136.13-431.95,74.7-107.73-62.35-63.62-324.21-150.92-411.62-87.41-87.4-349.39-43.3-411.63-150.9-61.42-106.11,107.15-310.7,74.71-431.93C249.17,1756.61,0,1664.01,0,1537s249.17-219.6,280.46-336.8c32.44-121.23-136.13-325.83-74.71-431.93,62.24-107.61,324.22-63.5,411.63-150.9,87.41-87.41,43.3-349.27,150.92-411.61,106.11-61.43,310.71,107.15,431.95,74.7C1317.44,249.16,1410.05,0,1537.06,0s219.61,249.16,336.81,280.45c121.24,32.45,325.84-136.01,431.95-74.7,107.61,62.35,63.5,324.32,150.91,411.61,87.29,87.4,349.28,43.3,411.52,151.02,61.42,106.11-107.04,310.59-74.59,431.82,31.29,117.19,280.35,209.79,280.35,336.8Z"/>
      <polygon class="cls-1" points="1371.75 2113.92 885.64 1627.81 1094.98 1418.48 1371.75 1695.25 2092.59 974.41 2301.92 1183.75 1371.75 2113.92"/>
    </g>
  </g>
</svg>