<?xml version="1.0" encoding="UTF-8"?>
<svg xmlns="http://www.w3.org/2000/svg" version="1.1" viewBox="0 0 28 25">
  <defs>
    <style>
      .cls-1 {
        fill: none;
        stroke: #fff;
        stroke-linecap: round;
        stroke-linejoin: round;
        stroke-width: 1.5px;
      }
    </style>
  </defs>
  <!-- Generator: Adobe Illustrator 28.6.0, SVG Export Plug-In . SVG Version: 1.2.0 Build 709)  -->
  <g>
    <g id="Layer_1">
      <path class="cls-1" d="M22,14.2v-5c0-4.2-1.7-5.8-5.8-5.8h-5c-4.2,0-5.8,1.7-5.8,5.8v5c0,4.2,1.7,5.8,5.8,5.8h5c4.2,0,5.8-1.7,5.8-5.8Z"/>
      <path class="cls-1" d="M5.8,7.6h15.8"/>
      <path class="cls-1" d="M10.8,3.4v4"/>
      <path class="cls-1" d="M16.6,3.4v3.7"/>
      <path class="cls-1" d="M11.8,13.7v-1c0-1.3.9-1.8,2-1.2l.9.5.9.5c1.1.6,1.1,1.7,0,2.3l-.9.5-.9.5c-1.1.6-2,.1-2-1.2v-1h0Z"/>
    </g>
  </g>
</svg>