<?xml version="1.0" encoding="UTF-8"?>
<svg id="Layer_1" xmlns="http://www.w3.org/2000/svg" viewBox="0 0 51 52">
  <defs>
    <style>
      .cls-1 {
        fill: none;
        stroke: #202126;
        stroke-linecap: round;
        stroke-linejoin: round;
        stroke-width: 3px;
      }
    </style>
  </defs>
  <path class="cls-1" d="M38.37,29.57c-.98.96-1.54,2.34-1.4,3.81.21,2.52,2.52,4.37,5.05,4.37h4.44v2.78c0,4.83-3.95,8.78-8.78,8.78H10.86c-4.83,0-8.78-3.95-8.78-8.78v-15.72c0-4.83,3.95-8.78,8.78-8.78h26.81c4.83,0,8.78,3.95,8.78,8.78v3.36h-4.72c-1.31,0-2.5.52-3.36,1.4Z"/>
  <path class="cls-1" d="M2.07,26.9v-10.67c0-2.78,1.71-5.26,4.3-6.24L24.92,2.99c2.9-1.1,6,1.05,6,4.16v8.88"/>
  <path class="cls-1" d="M48.93,30.54v4.81c0,1.28-1.03,2.33-2.34,2.38h-4.58c-2.52,0-4.83-1.85-5.05-4.37-.14-1.47.42-2.85,1.4-3.81.86-.89,2.06-1.4,3.36-1.4h4.86c1.31.05,2.34,1.1,2.34,2.38Z"/>
  <path class="cls-1" d="M12.58,25.95h16.35"/>
</svg>