<?xml version="1.0" encoding="UTF-8"?>
<svg id="Layer_1" xmlns="http://www.w3.org/2000/svg" viewBox="0 0 51 52">
  <defs>
    <style>
      .cls-1 {
        fill: none;
        stroke: #202126;
        stroke-linecap: round;
        stroke-linejoin: round;
        stroke-width: 3px;
      }
    </style>
  </defs>
  <path class="cls-1" d="M33.52,9.91l3.34,6.68c.45.92,1.66,1.8,2.67,1.99l6.04.99c3.86.64,4.76,3.43,1.99,6.23l-4.71,4.71c-.78.78-1.23,2.32-.97,3.43l1.35,5.82c1.07,4.59-1.4,6.39-5.44,3.98l-5.66-3.36c-1.02-.62-2.72-.62-3.74,0l-5.66,3.36c-4.05,2.39-6.51.62-5.44-3.98l1.35-5.82c.26-1.09-.19-2.63-.97-3.43l-4.71-4.71c-2.77-2.77-1.87-5.56,1.99-6.23l6.04-.99c1.02-.16,2.23-1.07,2.67-1.99l3.34-6.68c1.78-3.62,4.71-3.62,6.53,0Z"/>
  <path class="cls-1" d="M16.04,9.41H1.83"/>
  <path class="cls-1" d="M8.94,42.55H1.83"/>
  <path class="cls-1" d="M4.2,25.98H1.83"/>
</svg>