<?xml version="1.0" encoding="UTF-8"?>
<svg xmlns="http://www.w3.org/2000/svg" version="1.1" viewBox="0 0 1366 768">
  <defs>
    <style>
      .cls-1 {
        fill: none;
      }

      .cls-2 {
        fill: #1b1464;
      }

      .cls-3 {
        fill: #965bf9;
      }

      .cls-4 {
        fill: #76b3f8;
      }

      .cls-5 {
        fill: #a0eaf6;
      }

      .cls-6 {
        fill: #da7ad4;
      }
    </style>
  </defs>
  <!-- Generator: Adobe Illustrator 28.6.0, SVG Export Plug-In . SVG Version: 1.2.0 Build 709)  -->
  <g>
    <g id="Layer_1">
      <g>
        <path class="cls-4" d="M667.07,209.5h68.48l-80.48,99s-49-10-18-60l30-39Z"/>
        <path class="cls-5" d="M709.07,317.5l-37,46s-105.25-17.04-37.63-110.52c0,0-20.37,46.52,20.63,55.52l54,9Z"/>
        <path class="cls-3" d="M731.25,402h-68.48s80.48-99,80.48-99c0,0,49,10,18,60l-30,39Z"/>
        <path class="cls-6" d="M689.25,294l37-46s105.25,17.04,37.63,110.52c0,0,20.37-46.52-20.63-55.52l-54-9Z"/>
      </g>
      <path class="cls-2" d="M518.03,494.9c-3.46-1.42-6.22-3.51-8.29-6.29-2.07-2.78-3.16-6.12-3.27-10.03h15.47c.23,2.21.99,3.9,2.29,5.06,1.3,1.16,3,1.74,5.1,1.74s3.85-.5,5.1-1.49c1.25-.99,1.87-2.37,1.87-4.12,0-1.47-.5-2.69-1.49-3.66-.99-.96-2.21-1.75-3.66-2.38-1.45-.62-3.5-1.33-6.16-2.12-3.85-1.19-7-2.38-9.44-3.57-2.44-1.19-4.53-2.95-6.29-5.27-1.76-2.32-2.63-5.35-2.63-9.09,0-5.55,2.01-9.9,6.03-13.05,4.02-3.14,9.27-4.72,15.73-4.72s11.87,1.57,15.89,4.72c4.02,3.15,6.18,7.52,6.46,13.13h-15.73c-.11-1.93-.82-3.44-2.12-4.55-1.3-1.1-2.97-1.66-5.01-1.66-1.76,0-3.17.47-4.25,1.4-1.08.94-1.62,2.28-1.62,4.04,0,1.93.91,3.43,2.72,4.5,1.81,1.08,4.65,2.24,8.5,3.48,3.85,1.3,6.98,2.55,9.39,3.74,2.41,1.19,4.49,2.92,6.25,5.19,1.76,2.27,2.63,5.18,2.63,8.75s-.86,6.49-2.59,9.26c-1.73,2.78-4.24,4.99-7.52,6.63-3.29,1.64-7.17,2.46-11.64,2.46s-8.27-.71-11.73-2.12Z"/>
      <path class="cls-2" d="M586.88,484.1v12.33h-7.4c-5.27,0-9.38-1.29-12.32-3.87-2.95-2.58-4.42-6.79-4.42-12.62v-18.87h-5.78v-12.07h5.78v-11.56h14.53v11.56h9.52v12.07h-9.52v19.04c0,1.42.34,2.44,1.02,3.06.68.62,1.81.93,3.4.93h5.19Z"/>
      <path class="cls-2" d="M641.79,449v47.43h-14.54v-6.46c-1.47,2.1-3.47,3.78-5.99,5.06-2.52,1.27-5.31,1.91-8.37,1.91-3.63,0-6.83-.81-9.61-2.42-2.78-1.62-4.93-3.95-6.46-7.01-1.53-3.06-2.29-6.66-2.29-10.79v-27.71h14.45v25.75c0,3.17.82,5.64,2.46,7.39,1.64,1.76,3.85,2.64,6.63,2.64s5.07-.88,6.72-2.64c1.64-1.76,2.46-4.22,2.46-7.39v-25.75h14.54Z"/>
      <path class="cls-2" d="M684.88,433.53v22.02c-1.48-2.21-3.5-3.97-6.08-5.27-2.58-1.3-5.43-1.96-8.54-1.96-3.91,0-7.45.99-10.62,2.98-3.17,1.98-5.68,4.82-7.52,8.5-1.84,3.68-2.76,7.96-2.76,12.83s.92,9.17,2.76,12.88c1.84,3.71,4.35,6.57,7.52,8.58,3.17,2.01,6.71,3.02,10.62,3.02,3.34,0,6.28-.68,8.8-2.04,2.52-1.36,4.46-3.17,5.82-5.44v6.8h14.54v-62.9h-14.54ZM681.86,481.3c-2.01,2.1-4.46,3.14-7.35,3.14s-5.34-1.06-7.35-3.19c-2.01-2.12-3.02-5-3.02-8.63s1.01-6.47,3.02-8.54c2.01-2.07,4.46-3.1,7.35-3.1s5.34,1.05,7.35,3.15c2.01,2.1,3.02,4.96,3.02,8.58s-1.01,6.49-3.02,8.58Z"/>
      <path class="cls-2" d="M711.02,441.82c-1.61-1.5-2.42-3.36-2.42-5.57s.81-4.15,2.42-5.65c1.62-1.5,3.7-2.25,6.25-2.25s4.55.75,6.16,2.25c1.62,1.5,2.42,3.39,2.42,5.65s-.81,4.07-2.42,5.57c-1.61,1.5-3.67,2.25-6.16,2.25s-4.63-.75-6.25-2.25Z"/>
      <rect class="cls-2" x="709.96" y="449" width="14.54" height="47.43"/>
      <path class="cls-2" d="M778.21,459.84c-2.15-3.71-5.1-6.56-8.84-8.54-3.74-1.98-7.93-2.98-12.58-2.98s-8.84.99-12.58,2.98c-3.74,1.98-6.69,4.83-8.84,8.54-2.15,3.71-3.23,8-3.23,12.88s1.06,9.24,3.19,12.92c2.12,3.68,5.04,6.52,8.75,8.5,3.71,1.98,7.89,2.97,12.54,2.97s8.85-.99,12.62-2.97c3.77-1.98,6.74-4.83,8.92-8.54,2.18-3.71,3.27-8,3.27-12.88s-1.08-9.17-3.23-12.88ZM763.72,481.47c-1.95,2.04-4.32,3.06-7.1,3.06s-5.09-1.02-6.93-3.06c-1.84-2.04-2.76-4.96-2.76-8.75s.94-6.79,2.8-8.8c1.87-2.01,4.22-3.02,7.06-3.02s5.11,1.02,7.01,3.06c1.9,2.04,2.85,4.96,2.85,8.75s-.98,6.71-2.93,8.75Z"/>
      <path class="cls-2" d="M798.74,494.94c-3.09-1.39-5.51-3.32-7.27-5.78-1.76-2.46-2.67-5.31-2.72-8.54h8.25c.28,2.78,1.43,5.11,3.44,7.01,2.01,1.9,4.94,2.85,8.8,2.85s6.59-.92,8.71-2.76c2.12-1.84,3.19-4.21,3.19-7.1,0-2.27-.62-4.11-1.87-5.53-1.25-1.42-2.81-2.49-4.68-3.23-1.87-.74-4.39-1.53-7.56-2.38-3.91-1.02-7.04-2.04-9.39-3.06-2.35-1.02-4.36-2.62-6.04-4.8-1.67-2.18-2.51-5.11-2.51-8.8,0-3.23.82-6.09,2.47-8.58,1.64-2.49,3.95-4.42,6.93-5.78,2.98-1.36,6.39-2.04,10.24-2.04,5.55,0,10.1,1.39,13.64,4.17,3.54,2.78,5.54,6.46,5.99,11.05h-8.5c-.28-2.27-1.47-4.26-3.57-5.99-2.1-1.73-4.87-2.59-8.33-2.59-3.23,0-5.86.84-7.9,2.51-2.04,1.67-3.06,4.01-3.06,7.01,0,2.15.61,3.91,1.83,5.27,1.22,1.36,2.72,2.39,4.5,3.1,1.78.71,4.29,1.52,7.52,2.42,3.91,1.08,7.05,2.14,9.43,3.19,2.38,1.05,4.42,2.67,6.12,4.85,1.7,2.18,2.55,5.14,2.55,8.88,0,2.89-.76,5.61-2.29,8.16s-3.8,4.62-6.8,6.21c-3,1.59-6.54,2.38-10.62,2.38s-7.41-.69-10.5-2.08Z"/>
      <path class="cls-2" d="M840.6,440.75c-1.02-1.02-1.53-2.27-1.53-3.74s.51-2.72,1.53-3.74c1.02-1.02,2.27-1.53,3.74-1.53s2.62.51,3.61,1.53c.99,1.02,1.49,2.27,1.49,3.74s-.5,2.72-1.49,3.74c-.99,1.02-2.2,1.53-3.61,1.53s-2.72-.51-3.74-1.53Z"/>
      <rect class="cls-2" x="840.34" y="449.85" width="7.74" height="46.58"/>
      <polygon class="cls-2" points="885.56 496.43 874.51 479.09 863.89 496.43 855.81 496.43 870.86 473.31 855.81 449.85 864.57 449.85 875.62 467.1 886.16 449.85 894.23 449.85 879.27 472.88 894.32 496.43 885.56 496.43"/>
      <rect class="cls-1" x="304.66" y="70" width="789" height="617"/>
    </g>
  </g>
</svg>