<?xml version="1.0" encoding="UTF-8"?>
<svg xmlns="http://www.w3.org/2000/svg" version="1.1" viewBox="0 0 387.8 286.9">
  <defs>
    <style>
      .cls-1 {
        fill: #1b1464;
      }

      .cls-2 {
        fill: #965bf9;
      }

      .cls-3 {
        fill: #76b3f8;
      }

      .cls-4 {
        fill: #a0eaf6;
      }

      .cls-5 {
        fill: #da7ad4;
      }
    </style>
  </defs>
  <!-- Generator: Adobe Illustrator 28.6.0, SVG Export Plug-In . SVG Version: 1.2.0 Build 709)  -->
  <g>
    <g id="Layer_1">
      <g id="Layer_1-2" data-name="Layer_1">
        <g>
          <path class="cls-3" d="M160.6,0h68.5l-80.5,99s-49-10-18-60L160.6,0Z"/>
          <path class="cls-4" d="M202.6,108l-37,46s-105.2-17-37.6-110.5c0,0-20.4,46.5,20.6,55.5l54,9Z"/>
          <path class="cls-2" d="M224.8,192.5h-68.5l80.5-99s49,10,18,60l-30,39Z"/>
          <path class="cls-5" d="M182.8,84.5l37-46s105.2,17,37.6,110.5c0,0,20.4-46.5-20.6-55.5l-54-9Z"/>
        </g>
        <path class="cls-1" d="M11.6,285.4c-3.5-1.4-6.2-3.5-8.3-6.3s-3.2-6.1-3.3-10h15.5c.2,2.2,1,3.9,2.3,5.1s3,1.7,5.1,1.7,3.8-.5,5.1-1.5,1.9-2.4,1.9-4.1-.5-2.7-1.5-3.7c-1-1-2.2-1.8-3.7-2.4-1.5-.6-3.5-1.3-6.2-2.1-3.8-1.2-7-2.4-9.4-3.6s-4.5-3-6.3-5.3c-1.8-2.3-2.6-5.4-2.6-9.1,0-5.5,2-9.9,6-13,4-3.1,9.3-4.7,15.7-4.7s11.9,1.6,15.9,4.7,6.2,7.5,6.5,13.1h-15.7c-.1-1.9-.8-3.4-2.1-4.5-1.3-1.1-3-1.7-5-1.7s-3.2.5-4.2,1.4c-1.1.9-1.6,2.3-1.6,4s.9,3.4,2.7,4.5c1.8,1.1,4.7,2.2,8.5,3.5,3.8,1.3,7,2.5,9.4,3.7,2.4,1.2,4.5,2.9,6.2,5.2s2.6,5.2,2.6,8.8-.9,6.5-2.6,9.3c-1.7,2.8-4.2,5-7.5,6.6-3.3,1.6-7.2,2.5-11.6,2.5s-8.3-.7-11.7-2.1h0Z"/>
        <path class="cls-1" d="M80.4,274.6v12.3h-7.4c-5.3,0-9.4-1.3-12.3-3.9-3-2.6-4.4-6.8-4.4-12.6v-18.9h-5.8v-12.1h5.8v-11.6h14.5v11.6h9.5v12.1h-9.5v19c0,1.4.3,2.4,1,3.1s1.8.9,3.4.9h5.2,0Z"/>
        <path class="cls-1" d="M135.3,239.5v47.4h-14.5v-6.5c-1.5,2.1-3.5,3.8-6,5.1-2.5,1.3-5.3,1.9-8.4,1.9s-6.8-.8-9.6-2.4c-2.8-1.6-4.9-4-6.5-7s-2.3-6.7-2.3-10.8v-27.7h14.5v25.8c0,3.2.8,5.6,2.5,7.4,1.6,1.8,3.8,2.6,6.6,2.6s5.1-.9,6.7-2.6c1.6-1.8,2.5-4.2,2.5-7.4v-25.8h14.5,0Z"/>
        <path class="cls-1" d="M178.4,224v22c-1.5-2.2-3.5-4-6.1-5.3s-5.4-2-8.5-2-7.5,1-10.6,3c-3.2,2-5.7,4.8-7.5,8.5s-2.8,8-2.8,12.8.9,9.2,2.8,12.9,4.3,6.6,7.5,8.6c3.2,2,6.7,3,10.6,3s6.3-.7,8.8-2c2.5-1.4,4.5-3.2,5.8-5.4v6.8h14.5v-62.9h-14.5ZM175.4,271.8c-2,2.1-4.5,3.1-7.3,3.1s-5.3-1.1-7.3-3.2c-2-2.1-3-5-3-8.6s1-6.5,3-8.5,4.5-3.1,7.3-3.1,5.3,1,7.3,3.1c2,2.1,3,5,3,8.6s-1,6.5-3,8.6h0Z"/>
        <path class="cls-1" d="M204.5,232.3c-1.6-1.5-2.4-3.4-2.4-5.6s.8-4.1,2.4-5.6c1.6-1.5,3.7-2.2,6.2-2.2s4.5.8,6.2,2.2c1.6,1.5,2.4,3.4,2.4,5.6s-.8,4.1-2.4,5.6-3.7,2.2-6.2,2.2-4.6-.8-6.2-2.2Z"/>
        <rect class="cls-1" x="203.5" y="239.5" width="14.5" height="47.4"/>
        <path class="cls-1" d="M271.7,250.3c-2.2-3.7-5.1-6.6-8.8-8.5-3.7-2-7.9-3-12.6-3s-8.8,1-12.6,3c-3.7,2-6.7,4.8-8.8,8.5-2.2,3.7-3.2,8-3.2,12.9s1.1,9.2,3.2,12.9c2.1,3.7,5,6.5,8.8,8.5s7.9,3,12.5,3,8.8-1,12.6-3,6.7-4.8,8.9-8.5c2.2-3.7,3.3-8,3.3-12.9s-1.1-9.2-3.2-12.9h0ZM257.2,272c-2,2-4.3,3.1-7.1,3.1s-5.1-1-6.9-3.1c-1.8-2-2.8-5-2.8-8.8s.9-6.8,2.8-8.8c1.9-2,4.2-3,7.1-3s5.1,1,7,3.1,2.8,5,2.8,8.8-1,6.7-2.9,8.8h0Z"/>
        <path class="cls-1" d="M292.3,285.4c-3.1-1.4-5.5-3.3-7.3-5.8s-2.7-5.3-2.7-8.5h8.2c.3,2.8,1.4,5.1,3.4,7,2,1.9,4.9,2.9,8.8,2.9s6.6-.9,8.7-2.8,3.2-4.2,3.2-7.1-.6-4.1-1.9-5.5-2.8-2.5-4.7-3.2c-1.9-.7-4.4-1.5-7.6-2.4-3.9-1-7-2-9.4-3.1-2.3-1-4.4-2.6-6-4.8-1.7-2.2-2.5-5.1-2.5-8.8s.8-6.1,2.5-8.6c1.6-2.5,4-4.4,6.9-5.8s6.4-2,10.2-2c5.5,0,10.1,1.4,13.6,4.2,3.5,2.8,5.5,6.5,6,11h-8.5c-.3-2.3-1.5-4.3-3.6-6-2.1-1.7-4.9-2.6-8.3-2.6s-5.9.8-7.9,2.5c-2,1.7-3.1,4-3.1,7s.6,3.9,1.8,5.3c1.2,1.4,2.7,2.4,4.5,3.1s4.3,1.5,7.5,2.4c3.9,1.1,7,2.1,9.4,3.2s4.4,2.7,6.1,4.9,2.5,5.1,2.5,8.9-.8,5.6-2.3,8.2-3.8,4.6-6.8,6.2-6.5,2.4-10.6,2.4-7.4-.7-10.5-2.1h0Z"/>
        <path class="cls-1" d="M334.1,231.2c-1-1-1.5-2.3-1.5-3.7s.5-2.7,1.5-3.7,2.3-1.5,3.7-1.5,2.6.5,3.6,1.5,1.5,2.3,1.5,3.7-.5,2.7-1.5,3.7-2.2,1.5-3.6,1.5-2.7-.5-3.7-1.5Z"/>
        <rect class="cls-1" x="333.9" y="240.4" width="7.7" height="46.6"/>
        <polygon class="cls-1" points="379.1 286.9 368 269.6 357.4 286.9 349.3 286.9 364.4 263.8 349.3 240.4 358.1 240.4 369.1 257.6 379.7 240.4 387.8 240.4 372.8 263.4 387.8 286.9 379.1 286.9"/>
      </g>
    </g>
  </g>
</svg>